<!-- icon666.com - MILLIONS OF FREE VECTOR ICONS -->
<svg xmlns="http://www.w3.org/2000/svg" viewBox="0 0 24 24" fill="none" stroke="#745246" stroke-width="1.9">
  <g>
    <path d="m18 18h-3c-1.1 0-2-.9-2-2v-4c0-.6.4-1 1-1h4c1.1 0 2 .9 2 2v3c0 1.1-.9 2-2 2zm-3-5v3h3v-3z"></path>
  </g>
  <g>
    <path d="m9 18h-3c-1.1 0-2-.9-2-2v-4c0-.6.4-1 1-1h4c1.1 0 2 .9 2 2v3c0 1.1-.9 2-2 2zm-3-5v3h3v-3z"></path>
  </g>
  <g>
    <path d="m14 13c-.6 0-1-.4-1-1v-2c0-2.2 1.8-4 4-4 .6 0 1 .4 1 1s-.4 1-1 1c-1.1 0-2 .9-2 2v2c0 .6-.4 1-1 1z"></path>
  </g>
  <g>
    <path d="m5 13c-.6 0-1-.4-1-1v-2c0-2.2 1.8-4 4-4 .6 0 1 .4 1 1s-.4 1-1 1c-1.1 0-2 .9-2 2v2c0 .6-.4 1-1 1z"></path>
  </g>
</svg>